<svg width="48" height="34" viewBox="0 0 48 34" fill="none" xmlns="http://www.w3.org/2000/svg">
<path d="M15.2477 34C15.0127 34.0013 14.7798 33.957 14.5623 33.8695C14.3448 33.782 14.1469 33.6531 13.9801 33.4902L0.519146 20.2353C0.186636 19.9059 0 19.4604 0 18.9959C0 18.5315 0.186636 18.086 0.519146 17.7566C0.68511 17.5918 0.882564 17.461 1.10012 17.3718C1.31767 17.2825 1.55101 17.2366 1.78669 17.2366C2.02237 17.2366 2.25571 17.2825 2.47327 17.3718C2.69082 17.461 2.88827 17.5918 3.05424 17.7566L15.2477 29.7633L44.9547 0.511196C45.2892 0.183778 45.7417 0 46.2133 0C46.6849 0 47.1374 0.183778 47.4719 0.511196C47.6392 0.674619 47.7721 0.869049 47.8627 1.08327C47.9533 1.29749 48 1.52726 48 1.75933C48 1.9914 47.9533 2.22118 47.8627 2.4354C47.7721 2.64962 47.6392 2.84405 47.4719 3.00747L16.4974 33.4902C16.1648 33.8149 15.716 33.998 15.2477 34Z" fill="white"/>
</svg>
