<svg width="49" height="49" viewBox="0 0 49 49" fill="none" xmlns="http://www.w3.org/2000/svg">
<path d="M24.3625 0C11.0445 0 0.191895 10.8526 0.191895 24.1706C0.191895 37.4885 11.0445 48.3411 24.3625 48.3411C37.6804 48.3411 48.533 37.4885 48.533 24.1706C48.533 10.8526 37.6804 0 24.3625 0ZM34.0307 25.9834H26.1752V33.8388C26.1752 34.8298 25.3534 35.6516 24.3625 35.6516C23.3715 35.6516 22.5497 34.8298 22.5497 33.8388V25.9834H14.6942C13.7032 25.9834 12.8814 25.1616 12.8814 24.1706C12.8814 23.1796 13.7032 22.3578 14.6942 22.3578H22.5497V14.5023C22.5497 13.5113 23.3715 12.6895 24.3625 12.6895C25.3534 12.6895 26.1752 13.5113 26.1752 14.5023V22.3578H34.0307C35.0217 22.3578 35.8435 23.1796 35.8435 24.1706C35.8435 25.1616 35.0217 25.9834 34.0307 25.9834Z" fill="white"/>
</svg>
