<svg width="79" height="79" viewBox="0 0 79 79" fill="none" xmlns="http://www.w3.org/2000/svg">
<path d="M39.5 0C29.0273 0.0108229 18.9866 4.17589 11.5812 11.5812C4.17589 18.9865 0.0108229 29.0272 0 39.4999C0 50.0539 4.10594 59.9712 11.5644 67.4296C15.2241 71.11 19.5777 74.0277 24.3729 76.0137C29.1681 77.9998 34.3098 79.0148 39.5 78.9998C49.9727 78.989 60.0134 74.824 67.4188 67.4186C74.8241 60.0133 78.9892 49.9726 79 39.4999C78.9892 29.0272 74.8241 18.9865 67.4188 11.5812C60.0134 4.17589 49.9727 0.0108229 39.5 0ZM15.6236 67.1726C18.3537 63.6208 21.8505 60.7314 25.8533 58.7199C29.8561 56.7084 34.2615 55.6268 38.7407 55.5557C38.8809 55.5615 39.0152 55.5966 39.1554 55.5966H39.2897C39.4182 55.5966 39.535 55.5615 39.6635 55.5557C44.2047 55.633 48.6678 56.7503 52.7097 58.8219C56.7516 60.8935 60.2648 63.8641 62.9792 67.5056C56.4118 73.0481 48.0937 76.0857 39.5 76.0795C30.726 76.0952 22.2436 72.9309 15.6236 67.1726ZM39.1729 52.6062C39.0269 52.6062 38.8867 52.6296 38.7407 52.6354C35.3316 52.5199 32.102 51.0792 29.7385 48.6197C27.3749 46.1603 26.0639 42.8759 26.0841 39.4649C26.0902 37.7382 26.4372 36.0298 27.105 34.4375C27.7728 32.8453 28.7484 31.4005 29.9758 30.1861C31.2032 28.9717 32.6583 28.0116 34.2576 27.3608C35.8569 26.71 37.569 26.3813 39.2956 26.3936C41.0222 26.3997 42.7307 26.7467 44.3229 27.4145C45.9152 28.0823 47.36 29.0579 48.5744 30.2853C49.7887 31.5127 50.7489 32.9678 51.3997 34.5671C52.0505 36.1664 52.3792 37.8785 52.3668 39.6051C52.3668 46.6838 46.7015 52.4368 39.6694 52.6412C39.5058 52.6354 39.3423 52.6062 39.1729 52.6062ZM65.1461 65.5431C60.6299 59.5832 54.206 55.3528 46.9468 53.5582C49.4728 52.1741 51.58 50.1359 53.0474 47.6573C54.5148 45.1788 55.2884 42.3511 55.2871 39.4707C55.2803 37.3608 54.8573 35.273 54.0424 33.3268C53.2276 31.3805 52.0368 29.6142 50.5384 28.1287C49.04 26.6433 47.2633 25.4681 45.31 24.6702C43.3567 23.8724 41.2653 23.4676 39.1554 23.4792C37.0455 23.4861 34.9577 23.909 33.0114 24.7239C31.0652 25.5387 29.2988 26.7295 27.8134 28.2279C26.328 29.7263 25.1527 31.5031 24.3549 33.4563C23.557 35.4096 23.1523 37.501 23.1638 39.6109C23.1746 42.4644 23.9509 45.2627 25.4117 47.7139C26.8726 50.1651 28.9645 52.1794 31.4692 53.5465C24.3325 55.2995 17.9938 59.4039 13.4743 65.1985C6.69546 58.3708 2.90197 49.1329 2.92614 39.5116C2.93696 29.8134 6.79436 20.5155 13.652 13.6579C20.5097 6.80019 29.8076 2.9428 39.5058 2.93198C49.2041 2.9428 58.502 6.80019 65.3596 13.6579C72.2173 20.5155 76.0747 29.8134 76.0855 39.5116C76.0831 44.3598 75.1144 49.1589 73.2361 53.6285C71.3578 58.0981 68.6076 62.1485 65.1461 65.5431Z" fill="#1C1A5E"/>
</svg>
