<svg width="41" height="41" viewBox="0 0 41 41" fill="none" xmlns="http://www.w3.org/2000/svg">
<path d="M40.774 20.5C40.774 9.2045 31.6202 0 20.387 0C9.15376 0 0 9.2045 0 20.5C0 26.445 2.54837 31.7955 6.585 35.547C6.585 35.5675 6.585 35.5675 6.56461 35.588C6.76848 35.793 7.01312 35.957 7.21699 36.1415C7.33931 36.244 7.44125 36.3465 7.56357 36.4285C7.93054 36.736 8.33828 37.023 8.72563 37.31C8.86834 37.4125 8.99066 37.4945 9.13337 37.597C9.52072 37.8635 9.92846 38.1095 10.3566 38.335C10.4993 38.417 10.6624 38.5195 10.8051 38.6015C11.2128 38.827 11.641 39.032 12.0895 39.2165C12.2526 39.2985 12.4157 39.3805 12.5788 39.442C13.0273 39.6265 13.4758 39.7905 13.9243 39.934C14.0874 39.9955 14.2505 40.057 14.4136 40.098C14.9029 40.2415 15.3922 40.3645 15.8815 40.4875C16.0242 40.5285 16.1669 40.5695 16.33 40.59C16.9008 40.713 17.4716 40.795 18.0629 40.8565C18.1444 40.8565 18.226 40.877 18.3075 40.8975C19.0007 40.959 19.6938 41 20.387 41C21.0801 41 21.7733 40.959 22.4461 40.8975C22.5276 40.8975 22.6092 40.877 22.6907 40.8565C23.2819 40.795 23.8528 40.713 24.4236 40.59C24.5663 40.5695 24.709 40.508 24.8721 40.4875C25.3614 40.3645 25.8711 40.262 26.34 40.098C26.5031 40.0365 26.6662 39.975 26.8293 39.934C27.2778 39.77 27.7467 39.6265 28.1748 39.442C28.3379 39.3805 28.501 39.2985 28.6641 39.2165C29.0922 39.032 29.5204 38.827 29.9485 38.6015C30.1116 38.5195 30.2543 38.417 30.397 38.335C30.8047 38.089 31.2125 37.8635 31.6202 37.597C31.7629 37.515 31.8852 37.4125 32.028 37.31C32.4357 37.023 32.8231 36.736 33.19 36.4285C33.3123 36.326 33.4143 36.2235 33.5366 36.1415C33.7609 35.957 33.9851 35.7725 34.189 35.588C34.189 35.5675 34.189 35.5675 34.1686 35.547C38.2256 31.7955 40.774 26.445 40.774 20.5ZM30.4582 30.6885C24.9333 26.9575 15.8815 26.9575 10.3158 30.6885C9.41879 31.283 8.68486 31.98 8.07325 32.7385C4.97442 29.5815 3.05805 25.256 3.05805 20.5C3.05805 10.8855 10.8255 3.075 20.387 3.075C29.9485 3.075 37.7159 10.8855 37.7159 20.5C37.7159 25.256 35.7995 29.5815 32.7007 32.7385C32.1095 31.98 31.3552 31.283 30.4582 30.6885Z" fill="#11023D"/>
<path d="M20.3871 10.1059C16.167 10.1059 12.7419 13.5499 12.7419 17.7934C12.7419 21.9549 15.9835 25.3374 20.2851 25.4604H20.4686H20.6113H20.6521C24.7703 25.3169 28.0118 21.9549 28.0322 17.7934C28.0322 13.5499 24.6072 10.1059 20.3871 10.1059Z" fill="#11023D"/>
</svg>
