<svg width="22" height="22" viewBox="0 0 22 22" fill="none" xmlns="http://www.w3.org/2000/svg">
<path d="M9.88835 1.24811H7.91316C2.97519 1.24811 1 3.2233 1 8.16127V14.0868C1 19.0248 2.97519 21 7.91316 21H13.8387C18.7767 21 20.7519 19.0248 20.7519 14.0868V12.1116" stroke="white" stroke-linecap="round" stroke-linejoin="round"/>
<path d="M14.8658 2.25546L7.0836 10.0377C6.78732 10.334 6.49104 10.9167 6.43178 11.3413L6.00712 14.314C5.8491 15.3905 6.60955 16.141 7.68603 15.9929L10.6587 15.5682C11.0735 15.509 11.6562 15.2127 11.9623 14.9164L19.7446 7.13418C21.0877 5.79105 21.7197 4.23065 19.7446 2.25546C17.7694 0.28027 16.209 0.91233 14.8658 2.25546Z" stroke="white" stroke-miterlimit="10" stroke-linecap="round" stroke-linejoin="round"/>
<path d="M13.7499 3.37133C14.4116 5.73168 16.2584 7.57848 18.6286 8.25005" stroke="white" stroke-miterlimit="10" stroke-linecap="round" stroke-linejoin="round"/>
</svg>
