<svg width="137" height="134" viewBox="0 0 137 134" fill="none" xmlns="http://www.w3.org/2000/svg">
<path d="M69.5785 92.125V103.85" stroke="#11023D" stroke-width="2" stroke-linecap="round" stroke-linejoin="round"/>
<path d="M41.183 122.833H97.974V117.25C97.974 111.108 92.8628 106.083 86.6158 106.083H52.5412C46.2942 106.083 41.183 111.108 41.183 117.25V122.833Z" stroke="#11023D" stroke-width="2" stroke-miterlimit="10"/>
<path d="M35.5039 122.833H103.653M68.7266 89.3333C46.7485 89.3333 28.9729 71.8575 28.9729 50.25V33.5C28.9729 21.1608 39.1385 11.1667 51.6893 11.1667H85.7639C98.3147 11.1667 108.48 21.1608 108.48 33.5V50.25C108.48 71.8575 90.7047 89.3333 68.7266 89.3333Z" stroke="#11023D" stroke-width="2" stroke-linecap="round" stroke-linejoin="round"/>
<path d="M31.6421 65.0458C27.3827 63.7058 23.6345 61.2492 20.6814 58.3458C15.5702 52.7625 12.1628 46.0625 12.1628 38.2458C12.1628 30.4292 18.4098 24.2875 26.3605 24.2875H30.0519C28.9161 26.8558 28.3482 29.7033 28.3482 32.6625V49.4125C28.3482 54.9958 29.5408 60.2442 31.6421 65.0458ZM105.811 65.0458C110.07 63.7058 113.819 61.2492 116.772 58.3458C121.883 52.7625 125.29 46.0625 125.29 38.2458C125.29 30.4292 119.043 24.2875 111.093 24.2875H107.401C108.537 26.8558 109.105 29.7033 109.105 32.6625V49.4125C109.105 54.9958 107.912 60.2442 105.811 65.0458Z" stroke="#11023D" stroke-width="2" stroke-linecap="round" stroke-linejoin="round"/>
</svg>
