<svg width="50" height="52" viewBox="0 0 50 52" fill="none" xmlns="http://www.w3.org/2000/svg">
<path d="M47.6129 27.2389H39.0277C36.6101 27.2389 34.4638 28.5785 33.3783 30.7615L31.3061 34.8794C30.8127 35.8716 29.8259 36.4918 28.7404 36.4918H20.6487C19.8839 36.4918 18.7984 36.3181 18.083 34.8794L16.0107 30.7863C14.9253 28.6281 12.7543 27.2637 10.3613 27.2637H1.72689C0.764766 27.2637 0 28.0327 0 29.0002V37.0872C0 46.092 5.37803 51.475 14.3579 51.475H35.0312C43.493 51.475 48.6983 46.8114 49.3397 38.5259V28.9754C49.3397 28.0327 48.575 27.2389 47.6129 27.2389Z" fill="white"/>
<path d="M26.5201 1.8605C26.5201 0.843425 25.6813 0 24.6698 0C23.6584 0 22.8196 0.843425 22.8196 1.8605V6.82182H26.5201V1.8605Z" fill="white"/>
<path d="M49.3397 21.2345V23.8144C48.797 23.6159 48.2049 23.5167 47.6129 23.5167H39.0277C35.2039 23.5167 31.7748 25.65 30.0726 29.0734L28.2223 32.7447H21.1668L19.3165 29.0982C17.6143 25.65 14.1852 23.5167 10.3613 23.5167H1.72689C1.13481 23.5167 0.542737 23.6159 0 23.8144V21.2345C0 12.2048 5.35336 6.82181 14.3332 6.82181H22.8196V14.7351L21.0434 12.949C20.328 12.2297 19.1438 12.2297 18.4284 12.949C17.713 13.6684 17.713 14.8592 18.4284 15.5785L23.3624 20.5399C23.387 20.5647 23.4117 20.5647 23.4117 20.5895C23.5844 20.7383 23.7571 20.8624 23.9544 20.9368C24.2011 21.036 24.4232 21.0856 24.6699 21.0856C24.9166 21.0856 25.1386 21.036 25.3606 20.9368C25.5827 20.8624 25.8047 20.7135 25.9774 20.5399L30.9114 15.5785C31.6268 14.8592 31.6268 13.6684 30.9114 12.949C30.1959 12.2297 29.0118 12.2297 28.2963 12.949L26.5201 14.7351V6.82181H35.0066C43.9864 6.82181 49.3397 12.2048 49.3397 21.2345Z" fill="white"/>
</svg>
