<svg width="36" height="37" viewBox="0 0 36 37" fill="none" xmlns="http://www.w3.org/2000/svg">
<circle cx="17.8818" cy="18.6318" r="17.3818" fill="url(#paint0_linear_5_516)" stroke="white"/>
<path d="M18.0734 24.3795V27.0618" stroke="white" stroke-linecap="round" stroke-linejoin="round"/>
<path d="M11.6871 31.4045H24.4598V30.1273C24.4598 28.7223 23.3103 27.5727 21.9053 27.5727H14.2416C12.8366 27.5727 11.6871 28.7223 11.6871 30.1273V31.4045Z" stroke="white" stroke-miterlimit="10"/>
<path d="M10.4098 31.4045H25.7371M17.8818 23.7409C12.9388 23.7409 8.94092 19.743 8.94092 14.8V10.9682C8.94092 8.14539 11.2272 5.85907 14.05 5.85907H21.7136C24.5364 5.85907 26.8227 8.14539 26.8227 10.9682V14.8C26.8227 19.743 22.8249 23.7409 17.8818 23.7409Z" stroke="white" stroke-linecap="round" stroke-linejoin="round"/>
<path d="M9.54126 18.1847C8.58331 17.8782 7.74031 17.3162 7.07613 16.652C5.92658 15.3747 5.16022 13.842 5.16022 12.0538C5.16022 10.2657 6.56522 8.86066 8.3534 8.86066H9.18363C8.92817 9.4482 8.80044 10.0996 8.80044 10.7766V14.6084C8.80044 15.8857 9.06867 17.0863 9.54126 18.1847ZM26.2224 18.1847C27.1804 17.8782 28.0234 17.3162 28.6876 16.652C29.8371 15.3747 30.6035 13.842 30.6035 12.0538C30.6035 10.2657 29.1985 8.86066 27.4103 8.86066H26.5801C26.8355 9.4482 26.9633 10.0996 26.9633 10.7766V14.6084C26.9633 15.8857 26.695 17.0863 26.2224 18.1847Z" stroke="white" stroke-linecap="round" stroke-linejoin="round"/>
<defs>
<linearGradient id="paint0_linear_5_516" x1="17.8818" y1="0.75" x2="17.8818" y2="36.5136" gradientUnits="userSpaceOnUse">
<stop stop-color="#E5CF03"/>
<stop offset="1" stop-color="#BD7303"/>
</linearGradient>
</defs>
</svg>
