<svg width="31" height="30" viewBox="0 0 31 30" fill="none" xmlns="http://www.w3.org/2000/svg">
<path d="M24.8761 10.8195C24.8761 12.8535 24.273 14.7192 23.2349 16.2763C21.7199 18.5207 19.3211 20.1058 16.5296 20.5127C16.0527 20.5968 15.5617 20.6389 15.0567 20.6389C14.5517 20.6389 14.0607 20.5968 13.5838 20.5127C10.7922 20.1058 8.3935 18.5207 6.8785 16.2763C5.84044 14.7192 5.23724 12.8535 5.23724 10.8195C5.23724 5.3907 9.62794 1 15.0567 1C20.4854 1 24.8761 5.3907 24.8761 10.8195Z" stroke="#313480" stroke-width="2" stroke-linecap="round" stroke-linejoin="round"/>
<path d="M28.0324 24.1038L25.7178 24.6508C25.1988 24.7771 24.792 25.1699 24.6798 25.6889L24.1888 27.751C23.9223 28.8732 22.4915 29.2099 21.748 28.3261L15.0567 20.6389L8.36541 28.3402C7.62194 29.2239 6.1911 28.8872 5.92458 27.765L5.4336 25.7029C5.30735 25.1839 4.90055 24.7771 4.39555 24.6649L2.08096 24.1178C1.01485 23.8653 0.6361 22.5327 1.40763 21.7611L6.87847 16.2903C8.39347 18.5347 10.7922 20.1199 13.5838 20.5267C14.0608 20.6108 14.5517 20.6529 15.0567 20.6529C15.5617 20.6529 16.0527 20.6108 16.5296 20.5267C19.3212 20.1199 21.7199 18.5347 23.2349 16.2903L28.7058 21.7611C29.4773 22.5186 29.0985 23.8513 28.0324 24.1038Z" stroke="#313480" stroke-width="2" stroke-linecap="round" stroke-linejoin="round"/>
<path d="M15.8703 6.58306L16.698 8.23832C16.8102 8.46277 17.1048 8.68723 17.3713 8.72931L18.8723 8.9818C19.8262 9.1361 20.0506 9.83751 19.3633 10.5249L18.199 11.6891C18.0026 11.8855 17.8903 12.2643 17.9605 12.5449L18.2972 13.9897C18.5637 15.126 17.9605 15.5749 16.9505 14.9717L15.5477 14.144C15.2952 13.9897 14.8744 13.9897 14.6219 14.144L13.2191 14.9717C12.2091 15.5608 11.6059 15.126 11.8724 13.9897L12.2091 12.5449C12.2652 12.2783 12.167 11.8855 11.9706 11.6891L10.8063 10.5249C10.1189 9.83751 10.3434 9.15013 11.2972 8.9818L12.7983 8.72931C13.0508 8.68723 13.3453 8.46277 13.4576 8.23832L14.2852 6.58306C14.692 5.68528 15.4215 5.68528 15.8703 6.58306Z" stroke="#313480" stroke-width="2" stroke-linecap="round" stroke-linejoin="round"/>
</svg>
