<svg width="36" height="37" viewBox="0 0 36 37" fill="none" xmlns="http://www.w3.org/2000/svg">
<circle cx="17.8818" cy="18.1818" r="17.3818" fill="url(#paint0_linear_5_492)" stroke="white"/>
<path d="M19.7457 7.45142L7.96708 19.7842C7.52233 20.2526 7.09193 21.1751 7.00585 21.8137L6.47503 26.4119C6.28853 28.0723 7.49364 29.2077 9.15784 28.9238L13.7774 28.1433C14.423 28.0297 15.3269 27.5614 15.7717 27.0789L27.5502 14.7461C29.5874 12.6173 30.5056 10.1905 27.335 7.22435C24.1788 4.28663 21.7829 5.32264 19.7457 7.45142Z" fill="url(#paint1_linear_5_492)" stroke="white" stroke-miterlimit="10" stroke-linecap="round" stroke-linejoin="round"/>
<path d="M17.7802 9.50935C18.3971 13.4263 21.6108 16.4208 25.5991 16.8181Z" fill="url(#paint2_linear_5_492)"/>
<path d="M17.7802 9.50935C18.3971 13.4263 21.6108 16.4208 25.5991 16.8181" stroke="white" stroke-miterlimit="10" stroke-linecap="round" stroke-linejoin="round"/>
<defs>
<linearGradient id="paint0_linear_5_492" x1="17.8818" y1="0.300003" x2="17.8818" y2="36.0636" gradientUnits="userSpaceOnUse">
<stop stop-color="#E5CF03"/>
<stop offset="1" stop-color="#BD7303"/>
</linearGradient>
<linearGradient id="paint1_linear_5_492" x1="17.9302" y1="5.40909" x2="17.9302" y2="28.9674" gradientUnits="userSpaceOnUse">
<stop stop-color="#E5CF03"/>
<stop offset="1" stop-color="#BD7303"/>
</linearGradient>
<linearGradient id="paint2_linear_5_492" x1="21.6897" y1="9.50935" x2="21.6897" y2="16.8181" gradientUnits="userSpaceOnUse">
<stop stop-color="#E5CF03"/>
<stop offset="1" stop-color="#BD7303"/>
</linearGradient>
</defs>
</svg>
