<svg width="28" height="28" viewBox="0 0 28 28" fill="none" xmlns="http://www.w3.org/2000/svg">
<circle cx="14" cy="14" r="14" fill="#2BC990"/>
<path d="M4 17.29V7.70999C4 6.37999 4.77 6.05999 5.71 6.99999L8.3 9.58999C8.69 9.97999 9.33 9.97999 9.71 9.58999L13.29 5.99999C13.3825 5.90729 13.4924 5.83374 13.6134 5.78356C13.7343 5.73338 13.864 5.70755 13.995 5.70755C14.126 5.70755 14.2557 5.73338 14.3766 5.78356C14.4976 5.83374 14.6075 5.90729 14.7 5.99999L18.29 9.58999C18.68 9.97999 19.32 9.97999 19.7 9.58999L22.29 6.99999C23.23 6.05999 24 6.37999 24 7.70999V17.3C24 20.3 22 22.3 19 22.3H9C6.24 22.29 4 20.05 4 17.29Z" stroke="#11023D" stroke-width="1.5" stroke-linecap="round" stroke-linejoin="round"/>
</svg>
