<svg width="28" height="28" viewBox="0 0 28 28" fill="none" xmlns="http://www.w3.org/2000/svg">
<circle cx="14" cy="14" r="14" fill="#2BC990"/>
<path d="M20.5 21.5H16.5M18.5 23.5V19.5M13.99 23.81C12.17 23.81 10.36 23.35 8.98004 22.43C6.56004 20.81 6.56004 18.17 8.98004 16.56C11.73 14.72 16.24 14.72 18.99 16.56M14.16 12.87C14.06 12.86 13.94 12.86 13.83 12.87C12.6822 12.831 11.5947 12.3468 10.7977 11.52C10.0007 10.6931 9.55678 9.58845 9.56004 8.44C9.55846 7.85733 9.67189 7.28008 9.89384 6.74133C10.1158 6.20258 10.4419 5.71294 10.8534 5.30046C11.265 4.88799 11.7539 4.56079 12.2921 4.33763C12.8304 4.11447 13.4074 3.99974 13.99 4C16.44 4 18.43 5.99 18.43 8.44C18.43 10.84 16.53 12.79 14.16 12.87Z" stroke="#11023D" stroke-width="1.5" stroke-linecap="round" stroke-linejoin="round"/>
</svg>
