<svg width="269" height="269" viewBox="0 0 269 269" fill="none" xmlns="http://www.w3.org/2000/svg">
<mask id="mask0_675_107" style="mask-type:alpha" maskUnits="userSpaceOnUse" x="0" y="0" width="269" height="269">
<circle cx="134.5" cy="134.5" r="134.5" fill="#4F52AD"/>
</mask>
<g mask="url(#mask0_675_107)">
<circle cx="134.5" cy="134.5" r="134.5" fill="#4F52AD"/>
<path d="M74.375 271.258C74.375 265.968 78.6637 261.679 83.9542 261.679H112.875V271.258H74.375V271.258Z" fill="#D69A6E"/>
<rect width="33.5363" height="84.7645" rx="16.7682" transform="matrix(0.971708 -0.236185 0.283284 0.959036 67.375 191.225)" fill="#D69A6E"/>
<path d="M189.875 271.258C189.875 265.968 185.586 261.679 180.296 261.679H151.375V271.258H189.875V271.258Z" fill="#D69A6E"/>
<rect width="33.6993" height="85.1763" rx="16.8496" transform="matrix(-0.971708 -0.236185 -0.283284 0.959036 196.875 191.263)" fill="#D69A6E"/>
<path d="M109.007 93.7221C110.464 81.2453 121.034 71.8375 133.596 71.8375V71.8375C146.22 71.8375 156.823 81.3372 158.203 93.886L174.695 243.762C176.259 257.971 165.133 270.387 150.839 270.387H115.341C100.983 270.387 89.8375 257.865 91.5029 243.604L109.007 93.7221Z" fill="#F6D5A9"/>
<path d="M108.5 177.208C118.678 172.249 129.78 152.1 133.875 137.15V270.516C125.776 243.281 109.069 176.898 108.5 177.208Z" fill="#FCEEC0"/>
<path d="M157.5 175.971C147.884 170.946 137.743 152.297 133.875 137.15V270.387C141.526 242.794 156.962 175.656 157.5 175.971Z" fill="#FCEEC0"/>
<path d="M112.875 260.808H102.375C99.4755 260.808 95.375 265.487 95.375 271.258H119.875C119.875 265.487 115.774 260.808 112.875 260.808Z" fill="white"/>
<path d="M102.375 271.258C102.375 268.646 102.375 264.292 104.125 263.421" stroke="black"/>
<path d="M112 271.258C112 268.646 112 264.292 110.25 263.421" stroke="black"/>
<path d="M161.875 260.808H151.375C148.476 260.808 144.375 265.487 144.375 271.258H168.875C168.875 265.487 164.774 260.808 161.875 260.808Z" fill="white"/>
<path d="M152.25 271.258C152.25 268.646 152.25 264.292 154 263.421" stroke="black"/>
<path d="M161.875 271.258C161.875 268.646 161.875 264.292 160.125 263.421" stroke="black"/>
<path d="M103.036 75.3396C100.19 56.6839 114.628 39.875 133.5 39.875V39.875C152.372 39.875 166.81 56.6839 163.964 75.3396L159.936 101.745C158.147 113.466 148.067 122.125 136.21 122.125H130.79C118.933 122.125 108.853 113.466 107.064 101.745L103.036 75.3396Z" fill="#F6D5A9"/>
<ellipse cx="113.068" cy="47.2003" rx="6.59352" ry="6.45027" fill="#482712"/>
<ellipse cx="94.6059" cy="70.4212" rx="9.23093" ry="9.03038" fill="#482712"/>
<path d="M88.0124 63.971L107.793 43.3301L119.5 48.625L108.724 95.4375L88.0124 63.971Z" fill="#482712"/>
<path d="M85.5363 92.375L85.375 70.4212L102.599 74.875L108.724 91.9375L85.5363 92.375Z" fill="#482712"/>
<ellipse cx="97.349" cy="92.375" rx="11.8125" ry="11.375" fill="#482712"/>
<ellipse cx="6.59352" cy="6.45027" rx="6.59352" ry="6.45027" transform="matrix(-1 0 0 1 160.687 40.75)" fill="#482712"/>
<ellipse cx="9.23093" cy="9.03038" rx="9.23093" ry="9.03038" transform="matrix(-1 0 0 1 181.786 61.3908)" fill="#482712"/>
<path d="M179.149 63.971L159.368 43.3301L147.661 48.625L158.437 95.4375L179.149 63.971Z" fill="#482712"/>
<path d="M181.625 92.375L181.786 70.4212L164.562 74.875L158.437 91.9375L181.625 92.375Z" fill="#482712"/>
<ellipse cx="11.8125" cy="11.375" rx="11.8125" ry="11.375" transform="matrix(-1 0 0 1 181.625 81)" fill="#482712"/>
<circle cx="121.688" cy="81" r="2.625" fill="black"/>
<circle cx="144.438" cy="81" r="2.625" fill="black"/>
<path d="M133.5 113V121" stroke="black"/>
<path d="M122.5 117C122.5 122 130.145 124.143 133.5 121" stroke="black"/>
<path d="M144.5 117C144.5 122 137.113 124.143 133.5 121" stroke="black"/>
<ellipse cx="133.5" cy="112" rx="8" ry="5" fill="black"/>
</g>
</svg>
