<svg width="48" height="49" viewBox="0 0 48 49" fill="none" xmlns="http://www.w3.org/2000/svg">
<path d="M48 24.133C48 10.8357 37.224 0 24 0C10.776 0 0 10.8357 0 24.133C0 31.1316 3 37.4304 7.752 41.8467C7.752 41.8708 7.752 41.8708 7.728 41.895C7.968 42.1363 8.256 42.3294 8.496 42.5466C8.64 42.6672 8.76 42.7879 8.904 42.8844C9.336 43.2464 9.816 43.5843 10.272 43.9221C10.44 44.0428 10.584 44.1393 10.752 44.26C11.208 44.5737 11.688 44.8633 12.192 45.1288C12.36 45.2253 12.552 45.346 12.72 45.4425C13.2 45.708 13.704 45.9493 14.232 46.1665C14.424 46.263 14.616 46.3596 14.808 46.432C15.336 46.6492 15.864 46.8422 16.392 47.0112C16.584 47.0836 16.776 47.156 16.968 47.2042C17.544 47.3732 18.12 47.518 18.696 47.6628C18.864 47.711 19.032 47.7593 19.224 47.7834C19.896 47.9282 20.568 48.0248 21.264 48.0972C21.36 48.0972 21.456 48.1213 21.552 48.1454C22.368 48.2178 23.184 48.2661 24 48.2661C24.816 48.2661 25.632 48.2178 26.424 48.1454C26.52 48.1454 26.616 48.1213 26.712 48.0972C27.408 48.0248 28.08 47.9282 28.752 47.7834C28.92 47.7593 29.088 47.6869 29.28 47.6628C29.856 47.518 30.456 47.3973 31.008 47.2042C31.2 47.1318 31.392 47.0594 31.584 47.0112C32.112 46.8181 32.664 46.6492 33.168 46.432C33.36 46.3596 33.552 46.263 33.744 46.1665C34.248 45.9493 34.752 45.708 35.256 45.4425C35.448 45.346 35.616 45.2253 35.784 45.1288C36.264 44.8392 36.744 44.5737 37.224 44.26C37.392 44.1635 37.536 44.0428 37.704 43.9221C38.184 43.5843 38.64 43.2464 39.072 42.8844C39.216 42.7638 39.336 42.6431 39.48 42.5466C39.744 42.3294 40.008 42.1122 40.248 41.895C40.248 41.8708 40.248 41.8708 40.224 41.8467C45 37.4304 48 31.1316 48 24.133ZM35.856 36.1272C29.352 31.735 18.696 31.735 12.144 36.1272C11.088 36.827 10.224 37.6475 9.504 38.5405C5.856 34.824 3.6 29.7319 3.6 24.133C3.6 12.8146 12.744 3.61996 24 3.61996C35.256 3.61996 44.4 12.8146 44.4 24.133C44.4 29.7319 42.144 34.824 38.496 38.5405C37.8 37.6475 36.912 36.827 35.856 36.1272Z" fill="white"/>
<path d="M24 11.8969C19.032 11.8969 15 15.9512 15 20.9468C15 25.8458 18.816 29.8277 23.88 29.9725H24.096H24.264H24.312C29.16 29.8036 32.976 25.8458 33 20.9468C33 15.9512 28.968 11.8969 24 11.8969Z" fill="white"/>
</svg>
