<svg width="35" height="35" viewBox="0 0 35 35" fill="none" xmlns="http://www.w3.org/2000/svg">
<circle cx="17.4886" cy="17.532" r="16.9559" fill="white"/>
<path d="M27.7129 25.7949C28.082 26.2051 28.082 26.8203 27.6719 27.1895L26.5234 28.3379C26.1543 28.748 25.5391 28.748 25.1289 28.3379L21.0684 24.2773C20.8633 24.0723 20.7812 23.8262 20.7812 23.5801V22.8828C19.3047 24.0312 17.5 24.6875 15.5312 24.6875C10.8145 24.6875 7 20.873 7 16.1562C7 11.4805 10.8145 7.625 15.5312 7.625C20.207 7.625 24.0625 11.4805 24.0625 16.1562C24.0625 18.166 23.3652 19.9707 22.2578 21.4062H22.9141C23.1602 21.4062 23.4062 21.5293 23.6113 21.6934L27.7129 25.7949ZM15.5312 21.4062C18.4023 21.4062 20.7812 19.0684 20.7812 16.1562C20.7812 13.2852 18.4023 10.9062 15.5312 10.9062C12.6191 10.9062 10.2812 13.2852 10.2812 16.1562C10.2812 19.0684 12.6191 21.4062 15.5312 21.4062Z" fill="#1C1A5E"/>
</svg>
