<svg width="54" height="53" viewBox="0 0 54 53" fill="none" xmlns="http://www.w3.org/2000/svg">
<mask id="mask0_673_1568" style="mask-type:luminance" maskUnits="userSpaceOnUse" x="0" y="0" width="54" height="53">
<path d="M53.3405 0.348227L0.341675 0L1.78684e-05 51.9989L52.9989 52.3471L53.3405 0.348227Z" fill="white"/>
</mask>
<g mask="url(#mask0_673_1568)">
<path d="M6.95143 29.5687L22.4313 26.6365C23.8135 26.375 23.8164 25.9346 22.4377 25.655L6.99774 22.5196C6.07807 22.3332 5.18702 21.4466 5.00911 20.5427L2.01662 5.35413C1.74894 3.99709 2.5671 3.37277 3.84272 3.96047L50.8788 25.633C51.7284 26.0246 51.7243 26.6518 50.8696 27.0321L3.5528 48.0848C2.26957 48.6557 1.45968 48.0206 1.74517 46.6672L4.93699 31.5193C5.12676 30.6179 6.02938 29.743 6.95143 29.5687Z" fill="#1C1A5E"/>
</g>
</svg>
